<svg xmlns="http://www.w3.org/2000/svg" xmlns:xlink="http://www.w3.org/1999/xlink" width="500" zoomAndPan="magnify" viewBox="0 0 375 374.999991" height="500" preserveAspectRatio="xMidYMid meet" version="1.0"><defs><g/></defs><g fill="#2b2b2b" fill-opacity="1"><g transform="translate(172.02265, 280.970373)"><g><path d="M 37.109375 0 L 69.113281 0 L 69.113281 -2.550781 C 63.027344 -4.320312 61.257812 -8.835938 61.257812 -24.9375 L 61.257812 -62.242188 L 91.300781 -115.648438 C 99.152344 -129.585938 105.242188 -133.121094 110.542969 -134.890625 L 110.542969 -137.441406 L 87.175781 -137.441406 L 87.175781 -134.890625 C 94.636719 -133.515625 94.441406 -127.625 87.765625 -115.648438 L 60.277344 -66.953125 L 32.984375 -115.648438 C 25.132812 -129.585938 22.777344 -133.121094 28.667969 -134.890625 L 28.667969 -137.441406 L -2.355469 -137.441406 L -2.355469 -134.890625 C 1.765625 -133.121094 7.460938 -129.585938 15.117188 -115.648438 L 44.765625 -61.847656 L 44.765625 -24.9375 C 44.964844 -8.835938 43 -4.320312 37.109375 -2.550781 Z M 37.109375 0 "/></g></g></g><g fill="#2b2b2b" fill-opacity="1"><g transform="translate(99.492543, 226.909948)"><g><path d="M 37.109375 0 L 69.113281 0 L 69.113281 -2.550781 C 63.027344 -4.320312 61.257812 -8.835938 61.257812 -24.9375 L 61.257812 -62.242188 L 91.300781 -115.648438 C 99.152344 -129.585938 105.242188 -133.121094 110.542969 -134.890625 L 110.542969 -137.441406 L 87.175781 -137.441406 L 87.175781 -134.890625 C 94.636719 -133.515625 94.441406 -127.625 87.765625 -115.648438 L 60.277344 -66.953125 L 32.984375 -115.648438 C 25.132812 -129.585938 22.777344 -133.121094 28.667969 -134.890625 L 28.667969 -137.441406 L -2.355469 -137.441406 L -2.355469 -134.890625 C 1.765625 -133.121094 7.460938 -129.585938 15.117188 -115.648438 L 44.765625 -61.847656 L 44.765625 -24.9375 C 44.964844 -8.835938 43 -4.320312 37.109375 -2.550781 Z M 37.109375 0 "/></g></g></g><path fill="#f4f4f4" d="M 95.820312 199.257812 L 279.066406 199.257812 L 279.066406 228.363281 L 95.820312 228.363281 L 95.820312 199.257812 " fill-opacity="1" fill-rule="nonzero"/><g fill="#2b2b2b" fill-opacity="1"><g transform="translate(105.536841, 219.810382)"><g><path d="M 3.828125 0 L 7.128906 0 L 7.128906 -0.261719 C 6.5 -0.445312 6.316406 -0.910156 6.316406 -2.570312 L 6.316406 -6.417969 L 9.417969 -11.925781 C 10.226562 -13.363281 10.855469 -13.730469 11.402344 -13.910156 L 11.402344 -14.175781 L 8.992188 -14.175781 L 8.992188 -13.910156 C 9.761719 -13.769531 9.742188 -13.164062 9.050781 -11.925781 L 6.214844 -6.90625 L 3.402344 -11.925781 C 2.59375 -13.363281 2.347656 -13.730469 2.957031 -13.910156 L 2.957031 -14.175781 L -0.242188 -14.175781 L -0.242188 -13.910156 C 0.183594 -13.730469 0.769531 -13.363281 1.558594 -11.925781 L 4.617188 -6.378906 L 4.617188 -2.570312 C 4.636719 -0.910156 4.433594 -0.445312 3.828125 -0.261719 Z M 3.828125 0 "/></g></g></g><g fill="#2b2b2b" fill-opacity="1"><g transform="translate(119.854655, 219.810382)"><g><path d="M 8.261719 0.203125 C 11.664062 0.203125 15.429688 -2.023438 15.429688 -7.027344 C 15.429688 -11.988281 11.683594 -14.335938 8.261719 -14.335938 C 3.96875 -14.335938 1.054688 -11.257812 1.054688 -7.109375 C 1.054688 -2.085938 4.820312 0.203125 8.261719 0.203125 Z M 2.671875 -8.28125 C 2.550781 -11.582031 4.355469 -13.871094 7.433594 -13.871094 C 11.054688 -13.871094 13.710938 -9.921875 13.851562 -5.691406 C 13.953125 -2.652344 12.351562 -0.304688 9.113281 -0.304688 C 5.488281 -0.304688 2.816406 -4.210938 2.671875 -8.28125 Z M 2.671875 -8.28125 "/></g></g></g><g fill="#2b2b2b" fill-opacity="1"><g transform="translate(139.498205, 219.810382)"><g><path d="M 7.308594 0.203125 C 10.125 0.203125 12.351562 -1.335938 12.351562 -5.40625 L 12.351562 -11.601562 C 12.351562 -13.265625 12.554688 -13.730469 13.164062 -13.910156 L 13.164062 -14.175781 L 10.652344 -14.175781 L 10.652344 -13.910156 C 11.542969 -13.667969 12.027344 -13.101562 12.027344 -10.792969 L 12.027344 -5.347656 C 12.027344 -1.378906 9.699219 -0.222656 7.957031 -0.222656 C 5.324219 -0.222656 3.238281 -1.578125 3.238281 -5.347656 L 3.238281 -11.601562 C 3.238281 -13.265625 3.441406 -13.730469 4.050781 -13.910156 L 4.050781 -14.175781 L 0.769531 -14.175781 L 0.769531 -13.910156 C 1.398438 -13.730469 1.578125 -13.265625 1.578125 -11.601562 L 1.578125 -5.222656 C 1.578125 -1.152344 4.414062 0.203125 7.308594 0.203125 Z M 7.308594 0.203125 "/></g></g></g><g fill="#2b2b2b" fill-opacity="1"><g transform="translate(156.428256, 219.810382)"><g/></g></g><g fill="#2b2b2b" fill-opacity="1"><g transform="translate(163.861078, 219.810382)"><g><path d="M 12.757812 0.140625 C 14.457031 0.140625 16.605469 -2.023438 16.605469 -4.3125 C 16.605469 -5.589844 15.855469 -6.742188 14.722656 -7.269531 L 17.070312 -7.269531 L 17.171875 -7.554688 L 9.863281 -7.554688 L 9.761719 -7.269531 L 14.195312 -7.269531 C 14.824219 -7.046875 15.308594 -5.164062 15.308594 -3.949219 C 15.308594 -2.371094 15.105469 -0.769531 14.15625 -0.769531 C 12.917969 -0.769531 10.003906 -3.503906 7.632812 -6.257812 C 6.214844 -7.917969 4.515625 -10.0625 4.515625 -11.746094 C 4.515625 -12.71875 5.203125 -13.933594 6.886719 -13.933594 C 8.039062 -13.933594 9.375 -13.546875 10.347656 -11.277344 L 10.53125 -11.320312 L 10.308594 -13.667969 C 9.417969 -14.175781 8.28125 -14.316406 7.492188 -14.316406 C 4.332031 -14.316406 3.160156 -12.414062 3.160156 -10.914062 C 3.160156 -9.941406 3.5625 -8.992188 4.191406 -7.957031 C 1.742188 -7.109375 0.585938 -5.527344 0.585938 -3.726562 C 0.585938 -1.621094 2.1875 0.203125 4.554688 0.203125 C 6.195312 0.203125 7.632812 -0.808594 8.605469 -2.652344 C 10.1875 -1.09375 11.804688 0.140625 12.757812 0.140625 Z M 2.003906 -4.453125 C 2.003906 -5.710938 2.53125 -7.046875 4.332031 -7.753906 C 4.878906 -6.90625 5.589844 -6.035156 6.378906 -5.101562 C 7.007812 -4.355469 7.695312 -3.5625 8.402344 -2.855469 C 7.65625 -1.578125 6.417969 -0.890625 5.367188 -0.890625 C 3.238281 -0.890625 2.003906 -2.691406 2.003906 -4.453125 Z M 2.003906 -4.453125 "/></g></g></g><g fill="#2b2b2b" fill-opacity="1"><g transform="translate(184.395634, 219.810382)"><g/></g></g><g fill="#2b2b2b" fill-opacity="1"><g transform="translate(191.828457, 219.810382)"><g><path d="M 3.828125 0 L 7.128906 0 L 7.128906 -0.261719 C 6.5 -0.445312 6.316406 -0.910156 6.316406 -2.570312 L 6.316406 -6.417969 L 9.417969 -11.925781 C 10.226562 -13.363281 10.855469 -13.730469 11.402344 -13.910156 L 11.402344 -14.175781 L 8.992188 -14.175781 L 8.992188 -13.910156 C 9.761719 -13.769531 9.742188 -13.164062 9.050781 -11.925781 L 6.214844 -6.90625 L 3.402344 -11.925781 C 2.59375 -13.363281 2.347656 -13.730469 2.957031 -13.910156 L 2.957031 -14.175781 L -0.242188 -14.175781 L -0.242188 -13.910156 C 0.183594 -13.730469 0.769531 -13.363281 1.558594 -11.925781 L 4.617188 -6.378906 L 4.617188 -2.570312 C 4.636719 -0.910156 4.433594 -0.445312 3.828125 -0.261719 Z M 3.828125 0 "/></g></g></g><g fill="#2b2b2b" fill-opacity="1"><g transform="translate(206.146274, 219.810382)"><g><path d="M 8.261719 0.203125 C 11.664062 0.203125 15.429688 -2.023438 15.429688 -7.027344 C 15.429688 -11.988281 11.683594 -14.335938 8.261719 -14.335938 C 3.96875 -14.335938 1.054688 -11.257812 1.054688 -7.109375 C 1.054688 -2.085938 4.820312 0.203125 8.261719 0.203125 Z M 2.671875 -8.28125 C 2.550781 -11.582031 4.355469 -13.871094 7.433594 -13.871094 C 11.054688 -13.871094 13.710938 -9.921875 13.851562 -5.691406 C 13.953125 -2.652344 12.351562 -0.304688 9.113281 -0.304688 C 5.488281 -0.304688 2.816406 -4.210938 2.671875 -8.28125 Z M 2.671875 -8.28125 "/></g></g></g><g fill="#2b2b2b" fill-opacity="1"><g transform="translate(225.789827, 219.810382)"><g><path d="M 7.308594 0.203125 C 10.125 0.203125 12.351562 -1.335938 12.351562 -5.40625 L 12.351562 -11.601562 C 12.351562 -13.265625 12.554688 -13.730469 13.164062 -13.910156 L 13.164062 -14.175781 L 10.652344 -14.175781 L 10.652344 -13.910156 C 11.542969 -13.667969 12.027344 -13.101562 12.027344 -10.792969 L 12.027344 -5.347656 C 12.027344 -1.378906 9.699219 -0.222656 7.957031 -0.222656 C 5.324219 -0.222656 3.238281 -1.578125 3.238281 -5.347656 L 3.238281 -11.601562 C 3.238281 -13.265625 3.441406 -13.730469 4.050781 -13.910156 L 4.050781 -14.175781 L 0.769531 -14.175781 L 0.769531 -13.910156 C 1.398438 -13.730469 1.578125 -13.265625 1.578125 -11.601562 L 1.578125 -5.222656 C 1.578125 -1.152344 4.414062 0.203125 7.308594 0.203125 Z M 7.308594 0.203125 "/></g></g></g><g fill="#2b2b2b" fill-opacity="1"><g transform="translate(242.719884, 219.810382)"><g><path d="M 11.339844 0.140625 C 11.746094 0.140625 12.273438 0.101562 12.574219 0 L 12.574219 -0.242188 C 12.472656 -0.222656 12.371094 -0.222656 12.25 -0.222656 C 11.5625 -0.222656 11.15625 -0.890625 10.1875 -3.320312 C 9.214844 -5.8125 8.828125 -7.046875 6.339844 -7.371094 C 8.972656 -7.675781 10.347656 -9.113281 10.347656 -11.015625 C 10.347656 -12.816406 9.132812 -14.175781 5.023438 -14.175781 L 1.03125 -14.175781 L 1.03125 -13.910156 C 1.660156 -13.730469 1.84375 -13.265625 1.84375 -11.601562 L 1.84375 -2.570312 C 1.84375 -0.910156 1.660156 -0.445312 1.03125 -0.261719 L 1.03125 0 L 4.3125 0 L 4.3125 -0.261719 C 3.683594 -0.445312 3.503906 -0.910156 3.503906 -2.570312 L 3.503906 -7.308594 L 4.800781 -7.308594 C 7.230469 -7.308594 7.390625 -5.894531 8.566406 -3.097656 C 9.457031 -0.992188 9.78125 0.140625 11.339844 0.140625 Z M 3.503906 -7.613281 L 3.503906 -13.832031 C 3.828125 -13.851562 4.152344 -13.871094 4.453125 -13.871094 C 7.453125 -13.871094 8.625 -12.351562 8.625 -10.550781 C 8.625 -8.828125 7.53125 -7.613281 5.203125 -7.613281 Z M 3.503906 -7.613281 "/></g></g></g><g fill="#2b2b2b" fill-opacity="1"><g transform="translate(258.293198, 219.810382)"><g><path d="M 5.769531 0.203125 C 8.160156 0.203125 10.507812 -1.335938 10.507812 -3.867188 C 10.507812 -6.15625 8.402344 -7.046875 6.15625 -7.9375 C 4.433594 -8.648438 2.347656 -9.417969 2.347656 -11.320312 C 2.347656 -13.039062 3.746094 -13.992188 5.386719 -13.992188 C 7.695312 -13.992188 9.113281 -12.738281 9.863281 -10.976562 L 10.0625 -11.035156 L 9.984375 -13.386719 C 9.195312 -13.808594 7.878906 -14.316406 6.035156 -14.316406 C 3.058594 -14.316406 1.09375 -12.816406 1.09375 -10.449219 C 1.09375 -8.300781 2.613281 -7.453125 5 -6.5 C 6.703125 -5.8125 9.195312 -4.878906 9.195312 -2.855469 C 9.195312 -1.214844 7.796875 -0.160156 6.175781 -0.160156 C 3.363281 -0.160156 1.824219 -1.964844 1.03125 -4.089844 L 0.808594 -4.050781 L 0.910156 -1.234375 C 1.863281 -0.546875 3.644531 0.203125 5.769531 0.203125 Z M 5.769531 0.203125 "/></g></g></g></svg>